HIERARCHY
ROOT Hips
{
 OFFSET 0.000000 0.000000 0.000000
 CHANNELS 6 Xposition Yposition Zposition Yrotation Xrotation Zrotation
 JOINT Chest
 {
  OFFSET 0.000000 9.585900 0.002600
  CHANNELS 3 Yrotation Xrotation Zrotation
  JOINT Chest2
  {
   OFFSET 0.000000 9.601200 -0.005300
   CHANNELS 3 Yrotation Xrotation Zrotation
   JOINT Chest3
   {
    OFFSET 0.000000 9.561800 0.000000
    CHANNELS 3 Yrotation Xrotation Zrotation
    JOINT Chest4
    {
     OFFSET 0.000000 9.552100 0.000000
     CHANNELS 3 Yrotation Xrotation Zrotation
     JOINT Neck
     {
      OFFSET 0.000000 14.453000 0.000000
      CHANNELS 3 Yrotation Xrotation Zrotation
      JOINT Head
      {
       OFFSET 0.000000 8.936500 -0.011300
       CHANNELS 3 Yrotation Xrotation Zrotation
       End Site
       {
        OFFSET 0.000000 17.073600 -0.006000
       }
      }
     }
     JOINT RightCollar
     {
      OFFSET -2.921100 9.558500 0.000000
      CHANNELS 3 Yrotation Xrotation Zrotation
      JOINT RightShoulder
      {
       OFFSET -13.519700 0.000000 0.000000
       CHANNELS 3 Yrotation Xrotation Zrotation
       JOINT RightElbow
       {
        OFFSET 0.000000 -29.696600 0.000000
        CHANNELS 3 Yrotation Xrotation Zrotation
        JOINT RightWrist
        {
         OFFSET 0.000000 -24.004700 0.000000
         CHANNELS 3 Yrotation Xrotation Zrotation
         End Site
         {
          OFFSET 0.000000 -17.728500 0.000000
         }
        }
       }
      }
     }
     JOINT LeftCollar
     {
      OFFSET 2.921100 9.558500 0.000000
      CHANNELS 3 Yrotation Xrotation Zrotation
      JOINT LeftShoulder
      {
       OFFSET 13.519700 0.000000 0.000000
       CHANNELS 3 Yrotation Xrotation Zrotation
       JOINT LeftElbow
       {
        OFFSET 0.000000 -29.696600 0.000000
        CHANNELS 3 Yrotation Xrotation Zrotation
        JOINT LeftWrist
        {
         OFFSET 0.000000 -24.004700 0.000000
         CHANNELS 3 Yrotation Xrotation Zrotation
         End Site
         {
          OFFSET 0.000000 -17.728500 0.000000
         }
        }
       }
      }
     }
    }
   }
  }
 }
 JOINT RightHip
 {
  OFFSET -7.771700 -0.012900 -0.001300
  CHANNELS 3 Yrotation Xrotation Zrotation
  JOINT RightKnee
  {
   OFFSET 0.000000 -40.869800 0.001200
   CHANNELS 3 Yrotation Xrotation Zrotation
   JOINT RightAnkle
   {
    OFFSET 0.000000 -39.717900 0.002100
    CHANNELS 3 Yrotation Xrotation Zrotation
    JOINT RightToe
    {
     OFFSET 0.000000 -4.965400 11.033500
     CHANNELS 3 Yrotation Xrotation Zrotation
     End Site
     {
      OFFSET 0.000000 -1.423100 5.872300
     }
    }
   }
  }
 }
 JOINT LeftHip
 {
  OFFSET 7.771700 -0.012900 -0.001300
  CHANNELS 3 Yrotation Xrotation Zrotation
  JOINT LeftKnee
  {
   OFFSET 0.000000 -40.869800 0.001200
   CHANNELS 3 Yrotation Xrotation Zrotation
   JOINT LeftAnkle
   {
    OFFSET 0.000000 -39.717900 0.002100
    CHANNELS 3 Yrotation Xrotation Zrotation
    JOINT LeftToe
    {
     OFFSET 0.000000 -4.965400 11.033500
     CHANNELS 3 Yrotation Xrotation Zrotation
     End Site
     {
      OFFSET 0.000000 -1.423100 5.872300
     }
    }
   }
  }
 }
}
MOTION
Frames: 9
Frame Time: 0.008333
-15.749707 58.250274 60.770371 -179.541479 -26.769997 -2.194049 2.520982 18.394813 3.710574 0.224736 2.156975 0.233201 0.376192 3.562948 0.390018 1.953021 16.143340 1.992794 -0.529634 11.289747 -2.033718 -0.143061 -14.831165 -3.649268 0.351940 -2.593635 -0.564318 3.837388 -11.214924 -15.765572 127.664555 -76.432921 -95.177290 13.040237 -10.209979 -45.155009 -6.201227 -3.038201 -0.665260 7.233627 -7.887202 0.576287 -134.735698 -74.394403 104.842445 -6.228689 -2.732478 28.429724 6.304907 -44.019515 -5.006837 -0.186903 69.475460 -3.636075 5.875816 5.708976 8.658102 -0.039167 0.161374 -0.016124 -6.914511 -50.902415 0.585890 25.775867 62.924155 22.192702 -11.704795 34.706924 6.356151 -0.034047 -16.601348 -6.232289
-15.749140 58.248633 60.772462 -179.540116 -26.772245 -2.209319 2.519554 18.392987 3.727447 0.218356 2.152138 0.237434 0.374417 3.561604 0.392175 1.957566 16.146635 1.993572 -0.520175 11.261183 -2.017411 -0.113948 -14.821817 -3.692922 0.348789 -2.593640 -0.562960 3.824809 -11.238568 -15.755728 127.588219 -76.429400 -95.080528 13.059661 -10.219283 -45.227086 -6.211948 -3.043313 -0.655340 7.230410 -7.880657 0.584654 -134.753509 -74.413713 104.877646 -6.245197 -2.731434 28.403329 6.301129 -44.016739 -4.986618 -0.195647 69.473859 -3.642639 5.867858 5.713344 8.661716 -0.040583 0.157951 -0.016274 -6.922116 -50.899933 0.605058 25.793346 62.917279 22.216646 -11.751912 34.697717 6.333508 -0.019273 -16.581663 -6.228366
-15.749094 58.247523 60.773818 -179.545462 -26.777859 -2.217031 2.522470 18.394951 3.739573 0.214262 2.148441 0.239769 0.376421 3.563464 0.391371 1.944089 16.141235 2.006982 -0.507529 11.253356 -2.025015 -0.082635 -14.827234 -3.719373 0.336103 -2.604586 -0.532276 3.838112 -11.253622 -15.780927 127.627339 -76.404174 -95.173756 13.033472 -10.206750 -45.169268 -6.211744 -3.045281 -0.651387 7.234746 -7.873535 0.584637 -134.742230 -74.420566 104.853565 -6.251981 -2.730303 28.398800 6.306376 -44.010563 -4.971533 -0.211384 69.472985 -3.657519 5.864110 5.714904 8.665767 -0.044158 0.157093 -0.015944 -6.915792 -50.893848 0.614141 25.791573 62.915783 22.221726 -11.773446 34.684001 6.322120 -0.015674 -16.561039 -6.224096
-15.748195 58.246633 60.775196 -179.550576 -26.781413 -2.229250 2.519210 18.389432 3.756621 0.210954 2.145567 0.242629 0.383697 3.569169 0.387228 1.911538 16.110576 2.044127 -0.484660 11.270876 -2.061452 -0.035700 -14.850807 -3.748131 0.365803 -2.571146 -0.571018 3.826560 -11.281806 -15.773539 127.590540 -76.396502 -95.147705 13.021326 -10.202195 -45.136661 -6.198641 -3.035981 -0.655803 7.246425 -7.857480 0.560812 -134.717125 -74.427135 104.826705 -6.245478 -2.728838 28.400559 6.303142 -44.006102 -4.949247 -0.229548 69.469877 -3.674739 5.865550 5.716860 8.667615 -0.041037 0.156919 -0.015893 -6.899873 -50.887184 0.628749 25.763658 62.918471 22.205708 -11.820830 34.658298 6.293052 0.010191 -16.521977 -6.215099
-15.747553 58.246862 60.774761 -179.563010 -26.795496 -2.237049 2.517362 18.392956 3.773091 0.209573 2.140794 0.246917 0.372230 3.559067 0.395367 1.913531 16.117924 2.043695 -0.473136 11.275197 -2.075810 -0.021848 -14.846518 -3.764706 0.377108 -2.556761 -0.584224 3.814306 -11.309116 -15.765480 127.530254 -76.392489 -95.084509 13.024194 -10.203260 -45.160041 -6.192465 -3.034675 -0.656758 7.245335 -7.850483 0.556350 -134.679026 -74.425562 104.779502 -6.233309 -2.729047 28.402052 6.311751 -43.989383 -4.927402 -0.254614 69.467085 -3.698143 5.860870 5.713958 8.669689 -0.041113 0.159989 -0.014492 -6.898493 -50.871791 0.647096 25.777292 62.922622 22.219600 -11.836247 34.626770 6.293726 -0.002935 -16.488610 -6.213180
-15.748087 58.247737 60.773393 -179.575314 -26.814257 -2.239393 2.520036 18.399462 3.786910 0.207932 2.141201 0.248508 0.380194 3.567226 0.388023 1.895132 16.101767 2.061831 -0.459811 11.290675 -2.099044 -0.013421 -14.852174 -3.770744 0.383688 -2.543111 -0.585366 3.809408 -11.332806 -15.769089 127.551370 -76.384546 -95.128437 13.031061 -10.193140 -45.169418 -6.185228 -3.036948 -0.652518 7.244556 -7.843756 0.550394 -134.630263 -74.403052 104.696804 -6.251765 -2.711477 28.376913 6.318544 -43.968541 -4.913407 -0.262418 69.466597 -3.702230 5.849573 5.711457 8.666447 -0.041935 0.161773 -0.014220 -6.884488 -50.850061 0.659632 25.758520 62.930116 22.194037 -11.835750 34.602988 6.302446 -0.009119 -16.459960 -6.209250
-15.750586 58.247884 60.773816 -179.576348 -26.819554 -2.237551 2.508389 18.396301 3.791038 0.207859 2.137761 0.249399 0.375207 3.566234 0.390049 1.887000 16.093419 2.069722 -0.457309 11.292783 -2.106505 -0.001043 -14.870806 -3.780830 0.391191 -2.527117 -0.588573 3.799630 -11.355028 -15.768588 127.588629 -76.370992 -95.178911 13.020876 -10.180778 -45.132782 -6.173416 -3.033533 -0.655675 7.236427 -7.842014 0.547973 -134.592825 -74.405966 104.659959 -6.246922 -2.707139 28.375532 6.322078 -43.959387 -4.914666 -0.275474 69.466225 -3.715803 5.854082 5.700562 8.667231 -0.039746 0.168404 -0.014389 -6.870753 -50.841393 0.653799 25.730536 62.931383 22.163416 -11.826663 34.583304 6.315078 -0.019137 -16.429689 -6.208920
-15.753486 58.248080 60.774575 -179.572008 -26.822063 -2.239082 2.494041 18.389634 3.796078 0.206867 2.133529 0.250543 0.372417 3.565330 0.391984 1.881871 16.090028 2.073327 -0.466712 11.262513 -2.085112 0.028520 -14.827616 -3.824965 0.390416 -2.516824 -0.585572 3.803892 -11.359482 -15.778274 127.669451 -76.356631 -95.292302 13.019651 -10.184568 -45.191520 -6.164073 -3.025187 -0.664556 7.211960 -7.870643 0.588590 -134.577399 -74.459777 104.669172 -6.258091 -2.705679 28.364631 6.320632 -43.953729 -4.915205 -0.284665 69.466177 -3.725862 5.854613 5.695795 8.671627 -0.040183 0.168839 -0.017474 -6.865030 -50.835400 0.653961 25.691281 62.934463 22.118553 -11.818153 34.564367 6.324257 -0.033229 -16.388074 -6.202770
-15.756804 58.248645 60.774983 -179.576696 -26.827492 -2.237874 2.488671 18.381885 3.803415 0.206199 2.133391 0.249809 0.360942 3.547878 0.403783 1.890992 16.115317 2.057196 -0.468812 11.256683 -2.081957 0.025138 -14.843604 -3.826218 0.386455 -2.518043 -0.572366 3.783333 -11.384505 -15.763526 127.698600 -76.342988 -95.325959 13.010315 -10.173459 -45.164448 -6.166144 -3.029081 -0.658819 7.206768 -7.880509 0.610550 -134.571629 -74.460556 104.662344 -6.264818 -2.705158 28.349134 6.323715 -43.946178 -4.912909 -0.278202 69.465786 -3.723287 5.855666 5.693389 8.677473 -0.049907 0.167206 -0.019647 -6.854234 -50.826191 0.654107 25.664152 62.933722 22.088490 -11.819524 34.552071 6.322457 -0.032327 -16.367239 -6.197121
